<svg width="1440" height="318" viewBox="0 0 1440 318" fill="none" xmlns="http://www.w3.org/2000/svg">
<g clip-path="url(#clip0_1475_95)">
<path d="M-465.529 263.784C-462.465 264.728 -448.62 268.978 -443.483 265.408C-438.542 268.356 -446.616 279.299 -443.402 284.079C-440.627 288.237 -434.303 286.705 -428.498 284.01C-416.983 278.668 -405.9 272.441 -395.348 265.385C-384.982 258.37 -381.365 253.268 -374.731 243.258C-370.308 244.848 -366.99 247.773 -362.349 249.213C-353.41 252.024 -343.747 253.325 -335.511 257.276C-337.077 264.682 -345.336 272.054 -345.877 278.642C-346.269 282.893 -340.913 285.035 -340.614 289.423C-340.072 297.152 -345.071 299.133 -336.605 301.598C-331.414 300.953 -327.959 302.654 -326.239 306.701C-327.702 311.308 -327.506 314.948 -325.709 317.701C-305.702 307.173 -289.104 286.164 -270.802 270.971C-264.72 265.915 -253.893 254.5 -249.573 260.409C-247.442 263.335 -250.956 268.241 -246.452 269.117C-244.655 269.474 -237.237 266.686 -234.749 266.133C-224.763 263.933 -216.159 258.439 -206.576 257.99C-203.12 257.84 -200.287 258.209 -197.361 258.267L-103.134 212.735H-54.7673L0.487762 226.925C1.73173 225.774 2.9757 224.518 4.13904 223.205C7.08771 219.911 9.23011 215.948 12.2018 212.735C16.8091 207.736 21.4164 208.519 26.8415 204.43C35.676 197.842 39.454 192.566 44.4875 183.513C47.4016 183.283 46.0424 187.775 46.722 189.837C47.9429 193.384 49.567 197.83 51.8361 200.56C53.4717 202.518 56.2476 203.117 58.0674 204.914C60.1292 206.93 61.6842 209.521 64.5983 210.604C67.0402 211.502 66.6601 212.182 70.2077 209.683C73.7553 207.183 77.7521 202.772 81.2422 199.65C86.84 194.617 90.4568 193.419 96.4232 191.76C96.5384 203.278 112.791 201.205 120.347 204.292C122.259 205.098 123.94 205.018 125.887 205.444C128.536 205.997 129.746 207.747 130.552 210.051C130.978 210.662 131.363 211.301 131.704 211.963C134.007 210.604 136.311 209.372 138.499 208.346C142.45 206.469 145.963 206.895 150.121 204.615C153.876 202.541 157.862 198.026 161.524 198.222C160.534 201.274 160.177 208.197 161.72 210.005C164.761 213.541 170.462 206.55 174.079 202.092C178.306 196.805 182.234 194.87 187.279 190.885C194.812 184.953 199.385 176.303 208.012 176.314C214.739 176.314 211.352 180.265 212.228 185.402C213.218 191.161 218.989 190.009 224.045 190.39C224.301 190.4 224.556 190.435 224.806 190.493C225.031 190.533 225.254 190.587 225.474 190.654C225.878 190.783 226.265 190.961 226.625 191.184C227.258 191.574 227.768 192.132 228.1 192.797C228.827 194.407 245.013 177.091 245 178.858L331.5 -54.6431L-482 -54.6431C-482 18.8569 -482 191.357 -482 259.257C-477.473 261.791 -470.056 262.448 -465.529 263.864" fill="#00873D"/>
<rect x="-1000" y="235" width="3440" height="200" fill="#FFDE00"/>
<g style="mix-blend-mode:screen">
<mask id="mask0_1475_95" style="mask-type:luminance" maskUnits="userSpaceOnUse" x="0" y="138" width="230" height="89">
<path d="M0.488022 226.937L229.137 226.937V138.799L0.488022 138.799V226.937Z" fill="white"/>
</mask>
<g mask="url(#mask0_1475_95)">
<path d="M0.487859 226.925C1.73183 225.773 2.9758 224.518 4.13914 223.205C7.08781 219.911 9.23021 215.948 12.2019 212.735C16.8092 207.736 21.4165 208.519 26.8416 204.43C35.6761 197.842 39.4541 192.566 44.4876 183.513C47.4017 183.283 46.0425 187.775 46.7221 189.837C47.943 193.384 49.5671 197.83 51.8362 200.56C53.4718 202.518 56.2477 203.117 58.0676 204.914C60.1293 206.93 61.6843 209.521 64.5984 210.604C67.0403 211.502 66.6602 212.182 70.2078 209.683C73.7554 207.183 77.7523 202.772 81.2423 199.65C86.8401 194.617 90.4569 193.419 96.4233 191.76C96.5385 203.278 112.791 201.205 120.347 204.292C122.259 205.098 123.94 205.018 125.887 205.444C128.536 205.997 129.746 207.747 130.552 210.051C130.982 210.659 131.367 211.298 131.704 211.963C134.007 210.604 136.311 209.371 138.499 208.346C142.45 206.469 145.963 206.895 150.133 204.614C153.876 202.541 157.862 198.026 161.524 198.222C160.534 201.274 160.177 208.197 161.72 210.005C164.761 213.541 170.463 206.55 174.079 202.092C178.318 196.817 182.234 194.87 187.291 190.885C194.812 184.964 199.385 176.303 208.024 176.314C214.75 176.314 211.364 180.265 212.239 185.402C213.23 191.161 219 190.009 224.057 190.389C224.313 190.4 224.568 190.434 224.817 190.493C225.043 190.533 225.266 190.587 225.485 190.654C225.89 190.783 226.277 190.96 226.637 191.184C227.272 191.622 227.787 192.212 228.134 192.9C228.134 192.9 228.134 192.831 228.134 192.797C227.651 188.489 226.983 186.312 228.296 181.002C229.309 176.752 229.793 175.773 227.674 173.504C225.727 171.453 221.915 170.497 219.369 169.104C215.453 166.961 213.31 162.515 209.233 160.822C204.038 158.622 195.066 167.261 188.788 172.029C183.386 176.13 181.393 177.616 177.351 175.738C174.932 174.586 173.077 172.617 170.566 171.603C165.395 169.564 158.207 177.581 151.239 179.528C144.95 181.29 140.665 176.21 135.85 174.92C128.628 172.916 120.577 173.884 113.701 170.866C112.354 170.622 111.102 170.007 110.085 169.092C109.068 168.177 108.326 166.996 107.942 165.683C108.23 163.94 108.23 162.162 107.942 160.419C106.87 159.267 106.364 158.979 103.726 160.88C101.088 162.78 96.9186 168.367 94.6495 170.613C90.9637 174.275 86.103 179.7 81.9794 182.592C78.5931 184.999 73.0182 189.284 69.678 190.482C67.9384 190.093 66.1419 190.03 64.3796 190.297C62.8822 191.173 61.4194 192.117 59.9681 193.154C57.0309 194.19 54.0247 193.304 52.965 191.207C49.8666 185.103 58.2288 175.162 57.1807 168.701C56.5126 164.577 55.3493 161.64 55.6948 156.848C56.144 150.709 56.9157 144.443 56.3168 138.811C53.1608 139.663 49.4059 144.213 46.365 146.493C41.9075 149.949 37.3117 153.208 32.8196 156.56C22.7872 164.059 13.2386 170.774 5.34856 181.29C3.89726 183.225 2.23862 185.678 0.441776 188.293L0.487859 226.925Z" fill="#FFF0F9"/>
</g>
</g>
<path d="M1176.62 211.324C1179.16 212.105 1190.61 215.62 1194.85 212.667C1198.94 215.106 1192.26 224.155 1194.92 228.108C1197.22 231.547 1202.45 230.28 1207.25 228.051C1216.77 223.634 1225.94 218.484 1234.66 212.648C1243.24 206.847 1246.23 202.627 1251.71 194.349C1255.37 195.664 1258.11 198.083 1261.95 199.274C1269.35 201.598 1277.34 202.675 1284.15 205.942C1282.85 212.067 1276.02 218.163 1275.58 223.612C1275.25 227.127 1279.68 228.899 1279.93 232.528C1280.38 238.92 1276.24 240.559 1283.24 242.597C1287.54 242.064 1290.39 243.47 1291.82 246.817C1290.61 250.627 1290.77 253.637 1292.26 255.914C1308.8 247.208 1322.53 229.833 1337.66 217.268C1342.69 213.086 1351.65 203.646 1355.22 208.533C1356.98 210.952 1354.08 215.01 1357.8 215.734C1359.29 216.03 1365.42 213.724 1367.48 213.267C1375.74 211.448 1382.85 206.904 1390.78 206.532C1393.64 206.409 1395.98 206.714 1398.4 206.761L1476.33 169.106L1516.33 169.106L1562.02 180.842C1563.05 179.889 1564.08 178.851 1565.04 177.765C1567.48 175.04 1569.25 171.763 1571.71 169.106C1575.52 164.972 1579.33 165.619 1583.82 162.238C1591.13 156.789 1594.25 152.426 1598.41 144.939C1600.82 144.748 1599.7 148.463 1600.26 150.169C1601.27 153.102 1602.61 156.779 1604.49 159.037C1605.84 160.656 1608.14 161.152 1609.64 162.638C1611.35 164.305 1612.64 166.448 1615.05 167.344C1617.06 168.087 1616.75 168.649 1619.68 166.581C1622.62 164.514 1625.92 160.866 1628.81 158.285C1633.44 154.122 1636.43 153.131 1641.36 151.759C1641.46 161.285 1654.9 159.57 1661.15 162.123C1662.73 162.79 1664.12 162.724 1665.73 163.076C1667.92 163.533 1668.92 164.981 1669.59 166.886C1669.94 167.392 1670.26 167.92 1670.54 168.468C1672.45 167.344 1674.35 166.324 1676.16 165.476C1679.43 163.924 1682.34 164.276 1685.77 162.39C1688.88 160.675 1692.18 156.941 1695.2 157.103C1694.39 159.628 1694.09 165.353 1695.37 166.848C1697.88 169.773 1702.6 163.99 1705.59 160.304C1709.08 155.932 1712.33 154.331 1716.5 151.035C1722.73 146.13 1726.52 138.976 1733.65 138.985C1739.21 138.985 1736.41 142.253 1737.14 146.501C1737.96 151.264 1742.73 150.311 1746.91 150.626C1747.12 150.634 1747.33 150.663 1747.54 150.712C1747.73 150.745 1747.91 150.789 1748.09 150.845C1748.43 150.951 1748.75 151.098 1749.04 151.283C1749.57 151.605 1749.99 152.067 1750.26 152.617C1750.86 153.948 1751.17 155.395 1751.16 156.856L1795 -53.6426L1200 -53.6426C1187.3 -1.56841 1175.65 155.506 1163 207.58C1166.74 209.676 1172.88 210.219 1176.62 211.391" fill="#00873D"/>
<g style="mix-blend-mode:screen">
<mask id="mask1_1475_95" style="mask-type:luminance" maskUnits="userSpaceOnUse" x="1162" y="157" width="236" height="100">
<path d="M1162 256.942L1398 256.942V157.255L1162 157.255V256.942Z" fill="white"/>
</mask>
<g mask="url(#mask1_1475_95)">
<path d="M1175.66 212.323C1178.2 213.105 1189.69 216.62 1193.95 213.667C1198.05 216.105 1191.35 225.155 1194.01 229.108C1196.32 232.547 1201.56 231.28 1206.38 229.051C1215.93 224.633 1225.12 219.483 1233.87 213.648C1242.47 207.846 1245.47 203.626 1250.97 195.349C1254.64 196.663 1257.39 199.083 1261.24 200.273C1268.65 202.598 1276.67 203.674 1283.5 206.941C1282.2 213.066 1275.35 219.163 1274.9 224.612C1274.58 228.127 1279.02 229.899 1279.27 233.528C1279.72 239.92 1275.57 241.558 1282.59 243.597C1286.9 243.063 1289.76 244.47 1291.19 247.816C1289.98 251.627 1290.14 254.637 1291.63 256.914C1308.22 248.207 1321.99 230.832 1337.17 218.268C1342.21 214.086 1351.19 204.646 1354.77 209.532C1356.54 211.952 1353.63 216.01 1357.36 216.734C1358.85 217.029 1365 214.724 1367.07 214.267C1375.35 212.447 1382.49 207.903 1390.44 207.532C1393.3 207.408 1395.65 207.713 1398.08 207.761C1422.78 195.349 1430.27 176.383 1398.08 170.41C1396.96 171.877 1395.98 173.554 1394.85 174.935C1389.51 181.412 1385.3 183.689 1379.01 186.366C1372.72 189.043 1366.09 191.424 1362.65 187.633C1360.73 185.566 1359.73 183.822 1355.74 185.032C1352.11 186.099 1350.43 188.233 1347.08 190.881C1341.51 195.244 1335.75 195.244 1330.09 200.331C1327.22 202.941 1324.36 206.189 1321.43 208.904C1319.13 211.057 1317.02 213.476 1314.8 215.772C1310.92 219.807 1307.28 224.076 1303.92 228.555C1302.01 231.137 1300.1 234.176 1297.75 236.376C1293.87 235.423 1294.22 232.423 1293.88 228.27C1293.6 224.697 1294.41 220.801 1294.07 217.258C1293.78 215.8 1293.57 214.328 1293.43 212.847C1293.83 211.97 1294.04 211.019 1294.04 210.056C1293.47 209.385 1292.83 208.773 1292.13 208.227C1291.68 206.977 1291.62 205.617 1291.96 204.331C1291.41 201.14 1290.25 200.121 1291.79 196.034C1293.33 191.948 1295.22 190.595 1292.7 188.014C1291.26 186.556 1288.47 185.842 1286.63 184.813C1282.33 182.403 1276.62 180.765 1274.21 176.383C1272.63 173.525 1272.54 170.105 1272.25 166.4C1272.14 164.164 1271.88 161.937 1271.49 159.732C1271.64 158.055 1271.71 157.207 1271.68 157.207C1271.65 157.207 1271.63 157.493 1271.56 158.065C1269.89 159.455 1267.99 160.532 1266.41 159.97C1265.21 159.56 1264.98 158.512 1263.9 158.408C1263.12 158.331 1262.32 158.808 1259.85 161.837C1258.27 163.742 1253.9 169.896 1255.35 167.848C1253.96 169.3 1252.48 170.662 1250.91 171.925C1249.28 173.83 1247.64 175.735 1246.01 177.574C1241.69 181.812 1235.88 185.823 1231.25 189.69C1227.7 192.672 1223.48 196.501 1219.72 198.768C1216.54 200.673 1214.23 201.34 1211.72 200.912C1209.95 200.616 1205.98 199.816 1204.82 198.73C1204.46 197.358 1204.1 195.968 1203.76 194.577C1202.97 193.603 1201.93 192.867 1200.74 192.453C1198.59 191.209 1196.15 190.552 1193.66 190.548C1192.1 190.514 1190.55 190.813 1189.11 191.424C1188.79 191.493 1188.46 191.488 1188.14 191.411C1187.82 191.333 1187.52 191.184 1187.26 190.975C1187.01 190.767 1186.81 190.503 1186.67 190.205C1186.53 189.906 1186.46 189.581 1186.47 189.252C1184.5 187.718 1182.74 186.709 1181.83 184.146C1182.13 182.757 1181.91 181.308 1181.21 180.069C1179.66 178.903 1178.58 177.209 1178.19 175.306C1178 174.459 1178.88 173.573 1177.7 172.753L1162.11 208.513C1165.86 210.609 1172.01 211.152 1175.77 212.323" fill="#FFF0F9"/>
</g>
</g>
<path d="M1434.5 159.611C1427.3 168.011 1421.17 172.778 1419 174.111L1408.25 172.556L1398 170.5L1397.5 171.5L1396.5 207.5C1398 208 1400 208 1406.5 206.111C1413.49 204.08 1412.5 201.611 1417 201.611C1421.5 201.611 1423 196.611 1436.5 191.111C1447.3 186.711 1445.33 186.278 1443 186.611C1446.33 173.611 1452.5 148.111 1450.5 150.111C1448 152.611 1443.5 149.111 1434.5 159.611Z" fill="#FFF1FA"/>
<path d="M935.519 131.215C935.849 126.536 942.732 120.515 938.727 117.592C936.765 116.161 932.522 116.475 929.834 116.414C925.12 116.176 920.396 116.289 915.699 116.753C909.487 117.539 908.802 119.082 904.413 122.951C901.156 120.46 902.804 115.835 897.327 114.411C888.788 112.223 889.442 116.407 885.663 122.372C883.374 125.824 880.443 128.806 877.03 131.153C875.4 132.328 872.828 133.71 871.454 134.918C869.536 136.592 868.649 139.117 866.868 140.885C864.745 142.954 862.221 144.4 860.199 146.487C858.177 148.574 857.286 151.265 854.773 152.998C850.189 156.156 845.883 154.484 842.137 154.257C832.996 153.753 823.4 155.512 815.21 152.458C811.021 150.902 806.228 147.912 801.144 147.677C794.609 147.37 789.995 152.432 784.357 155.757C776.443 160.44 767.389 164.033 758.694 165.168C750.769 166.301 743.162 169.053 736.347 173.254C731.714 176.083 730.789 178.731 727.263 182.364C724.923 184.763 721.141 187.048 717.742 186.928C716.235 186.849 714.756 185.851 713.264 185.616C711.773 185.381 709.361 185.839 707.438 185.335C703.813 188.453 702.055 192.573 698.374 195.671C696.994 196.337 695.729 197.22 694.628 198.286C693.815 199.426 693.019 200.466 692.259 201.571C689.705 203.349 690.503 201.867 688.011 201.752C679.326 201.56 671.567 197.968 661.754 201.903C658.36 195.947 645.91 193.307 636.503 198.971C632.064 201.66 630.196 204.005 625.88 203.107C622.769 202.466 619.987 199.203 615.852 201.259C612.097 203.133 607.255 208.812 603.92 211.464C599.175 215.27 594.284 218.774 589.291 222.204C580.51 228.306 573.151 237.939 563.903 243.188C555.033 248.243 549.063 242.806 544.152 239.114C538.439 234.782 531.425 232.562 524.155 229.811C519.661 228.113 515.078 228.21 509.878 227.592C506.189 227.153 503.399 225.758 499.832 225.325C491.444 224.325 486.603 220.983 481.411 216.165C479.754 214.622 477.49 210.806 473.778 211.628C471.587 212.086 468.581 214.945 466.15 215.735C464.086 216.452 461.878 216.653 459.719 216.32C451.416 214.995 443.191 210.328 437.713 205.787C430.566 199.958 426.532 190.934 418.727 185.741C415.882 183.84 412.342 184.81 408.916 183.784C406.319 183.156 403.849 182.084 401.617 180.615C396.792 176.864 392.547 170.657 391.887 164.528C391.12 157.464 387.599 156.797 379.913 161.636C376.965 163.508 374.803 166.21 372.067 167.874C370.227 169.058 367.2 169.365 365.148 170.226C360.186 172.318 355.343 175.896 350.03 176.245C345.697 176.519 345.853 174.744 341.729 179.099C339.614 181.345 338.721 183.727 335.2 184.353C332.764 184.777 329.171 182.963 327.018 182.768C324.144 182.504 320.744 182.351 317.482 182.325C314.22 182.299 311.491 181.554 307.725 182.146C305.188 182.553 302.807 184.247 300.425 184.127C298.885 184.05 297.581 183.022 295.949 182.849C294.839 182.73 293.164 183.112 291.867 183.023C288.201 182.606 285.941 181.973 281.435 184.907C280.946 183.822 277.816 177.833 276.881 177.674C275.076 177.342 273.339 178.864 271.425 179.333C270.023 179.533 268.611 179.656 267.196 179.702C261.058 180.407 255.775 185.861 249.237 185.224C244.886 184.802 244.712 182.798 239.868 185.835C236.778 187.78 233.866 189.971 230.436 191.445L226.569 189.941L317.482 -55.1412L758.694 -55.1412L953.5 -55.1412L1044 -53.6426L938.784 135.961C936.683 135.177 935.374 133.774 935.519 131.215Z" fill="#00873D"/>
<g style="mix-blend-mode:screen">
<mask id="mask2_1475_95" style="mask-type:luminance" maskUnits="userSpaceOnUse" x="223" y="90" width="733" height="170">
<path d="M949.554 90.555L223.668 121.62L229.56 259.309L955.446 228.245L949.554 90.555Z" fill="white"/>
</mask>
<g mask="url(#mask2_1475_95)">
<path d="M271.533 179.273C270.131 179.474 268.719 179.597 267.304 179.642C261.166 180.347 255.884 185.802 249.345 185.164C244.994 184.742 244.82 182.738 239.976 185.775C236.982 187.887 233.829 189.763 230.544 191.385L226.568 189.93L227.829 188.384C230.389 187.627 232.831 186.514 235.082 185.078C236.155 184.325 236.873 183.52 237.937 182.811C239.076 182.154 240.178 181.436 241.238 180.658C243.468 178.772 243.118 178.621 246.229 177.438C247.838 176.868 249.408 176.195 250.929 175.424C254 173.811 255.204 173.285 258.237 173.111C261.269 172.937 263.569 174.496 266.866 173.791C269.563 173.113 272.107 171.932 274.366 170.309C276.728 168.682 278.456 166.442 281.103 165.267C284.044 163.981 286.374 164.976 289.111 164.35C291.848 163.724 293.574 161.948 295.759 160.075C298.286 157.826 301.062 155.875 304.033 154.26C305.536 153.49 307.179 153.034 308.864 152.92C310.549 152.806 312.239 153.037 313.832 153.598C314.707 153.892 315.852 154.827 317.057 154.565C318.658 154.264 320.829 152.823 322.703 152.455C324.058 152.343 325.402 152.119 326.72 151.786C327.242 151.576 327.699 150.639 328.221 150.428C328.844 150.257 329.477 150.123 330.116 150.027C333.241 149.153 336.566 149.334 339.578 150.539C342.119 151.536 344.51 152.141 345.977 154.123C347.572 156.266 348.741 156.979 352.813 154.759C355.222 153.44 357.358 151.702 359.852 150.821C363.11 149.527 366.485 148.55 369.93 147.903C371.492 147.774 373.041 147.52 374.562 147.141C376.134 146.687 378.175 145.549 379.811 145.546C382.264 145.529 384.48 148.242 386.925 147.253C388.272 146.709 389.696 144.592 391.027 143.916C392.358 143.24 393.877 143.363 395.408 142.966C396.938 142.569 398.277 141.826 399.761 141.376C401.42 140.863 402.99 140.873 404.615 140.372C407.888 139.348 408.267 137.099 411.519 138.197C415.332 139.471 416.105 138.167 419.851 135.033C426.703 129.312 436.179 126.53 443.762 121.364C446.05 119.818 448.164 116.268 450.045 118.885C450.762 119.893 450.108 121.922 449.422 123.178C448.599 124.302 447.699 125.368 446.728 126.366C444.377 129.317 442.217 132.415 440.261 135.641C437.621 139.833 436.961 142.989 439.212 146.275C439.742 147.038 440.626 147.785 440.779 148.784C441.055 150.574 438.434 153.914 439.374 155.476C439.97 156.479 441.309 156.267 441.588 157.36C441.867 158.454 440.8 159.605 441.255 160.691C441.982 162.428 444.124 162.105 445.612 163.058C447.101 164.011 447.085 165.946 448.716 166.871C452.115 168.815 456.157 165.094 459.914 165.839C461.194 166.24 462.448 166.721 463.667 167.281C465.383 167.86 466.99 167.438 468.763 167.804C470.938 168.253 470.067 169.859 471.112 171.02C472.156 172.18 474.846 172.783 476.708 172.626C479.075 172.414 481.08 171.488 483.309 171.913C484.755 172.34 486.168 172.874 487.534 173.511C488.657 173.928 490.602 174.165 491.405 174.849C492.608 175.837 491.744 177.609 492.046 178.989C492.709 182.078 498.18 181.026 499.964 183.204C501.539 185.116 499.98 187.703 502.593 189.083C504.786 190.227 506.841 190.195 508.13 192.162C509.243 193.894 509.304 195.074 511.51 195.975C513.715 196.875 515.413 196.515 517.447 197.036C515.881 202.542 520.174 206.769 521.813 210.987C522.381 212.909 523.183 214.754 524.204 216.478C525.11 217.766 525.634 221.237 527.209 221.877C530.086 222.981 535.122 218.222 538.005 219.204C540.888 220.186 536.567 224.87 541.581 223.981C545.782 223.226 548.967 217.817 553.585 217.774C556.79 217.748 556.715 220.647 559.718 220.828C561.935 220.976 566.143 219.592 568.544 218.615C571.991 217.128 575.25 215.237 578.252 212.983C582.377 209.943 584.61 206.587 589.249 204.177C593.349 202.078 596.549 201.444 599.218 197.947C602.808 193.228 606.777 188.604 610.49 183.924C613.637 179.976 617.143 175.614 621.894 172.725C624.307 171.251 626.162 170.696 628.361 168.866C631.053 166.673 633.278 164.157 635.801 161.916C637.431 160.464 642.296 154.552 643.418 154.692C641.629 158.87 639.439 162.965 639.425 167.022C639.442 169.616 639.761 172.199 640.373 174.719C641.505 179.723 647.028 183.001 652.817 175.679C653.926 175.764 654.6 176.542 655.652 176.586C656.704 176.629 657.391 175.903 658.286 175.876C661.287 175.748 659.96 178.579 660.901 180.683C661.842 182.787 663.459 183.89 666.682 182.989C670.414 181.879 674.928 176.269 677.654 178.496C679.017 179.621 677.819 181.076 678.588 182.259C679.512 183.689 681.278 183.105 683.036 182.875C684.899 182.5 686.797 182.33 688.696 182.368C690.198 182.632 691.731 182.674 693.245 182.494C696.093 181.885 699.385 180.02 702.122 178.643C706.161 176.679 710.238 174.051 714.214 171.891C723.71 166.754 732.007 158.639 740.888 152.809C744.791 150.254 749.848 150.104 753.552 147.547C754.261 147.063 754.668 146.239 755.387 145.755C757.837 144.103 761.22 143.847 763.863 142.341C768.127 139.948 770.871 135.619 774.835 132.664C777.42 130.731 780.116 128.951 782.908 127.333C784.14 126.442 785.449 125.665 786.821 125.01C789.792 124.419 786.028 130.239 785.932 131.869C785.763 134.639 787.139 137.344 790.924 136.419C792.523 135.898 794.045 135.168 795.452 134.247C796.997 133.418 799.235 132.758 800.631 131.814C802.272 130.639 802.949 129.405 804.782 128.32C806.42 127.344 809.119 126.355 810.906 125.472C813.091 124.533 815.34 123.75 817.636 123.128C822.584 121.479 824.059 119.78 826.313 123.364C827.559 125.356 827.87 127.719 829.955 129.178C832.346 130.8 834.833 128.737 838.062 128.256C840.809 127.851 843.088 128.947 845.743 128.977C849.857 129.022 853.348 131.039 857.47 127.16C859.394 125.353 860.29 122.784 861.499 120.808C863.532 117.817 865.738 114.947 868.106 112.213C872.603 106.494 878.094 102.301 884.333 97.7565C887.343 95.5984 890.721 94.0079 894.302 93.0631C897.509 92.3289 902.294 94.0918 904.569 95.5972C907.22 97.3519 907.644 100.296 911.723 100.818C912.657 100.944 913.927 100.646 915.033 100.676C916.213 100.908 917.409 101.046 918.61 101.087C924.962 100.473 932.898 99.1491 938.605 100.519C943.072 101.577 948.866 103.694 950.127 107.598C950.851 109.777 950.129 112.019 948.533 114.519C947.665 115.927 947.093 117.013 946.377 118.37C945.4 120.092 949.261 121.768 948.533 123.358C947.319 125.985 947.134 125.969 945.5 128.858C944.78 129.804 941.206 132.687 941 133.858C941.003 133.946 940.441 133.867 940.39 133.969L938.784 135.961C937.762 135.691 936.87 135.064 936.271 134.193C935.672 133.323 935.405 132.266 935.519 131.215C935.849 126.536 942.732 120.516 938.727 117.592C936.765 116.161 932.522 116.465 929.834 116.414C925.124 116.176 920.403 116.289 915.71 116.753C909.499 117.538 908.802 119.083 904.413 122.951C901.156 120.46 902.804 115.835 897.327 114.411C888.788 112.223 889.443 116.407 885.663 122.372C883.374 125.825 880.443 128.806 877.03 131.153C875.4 132.329 872.828 133.71 871.454 134.907C869.536 136.592 868.649 139.117 866.868 140.885C864.746 142.954 862.221 144.4 860.199 146.487C858.177 148.574 857.286 151.265 854.784 152.986C850.189 156.157 845.883 154.473 842.138 154.257C832.997 153.753 823.4 155.512 815.211 152.458C811.021 150.902 806.228 147.912 801.145 147.677C794.621 147.37 789.996 152.432 784.357 155.757C776.444 160.44 767.389 164.033 758.694 165.168C750.772 166.299 743.168 169.052 736.358 173.254C731.715 176.083 730.789 178.731 727.263 182.364C724.923 184.764 721.141 187.048 717.742 186.928C716.236 186.849 714.756 185.851 713.265 185.616C711.773 185.382 709.359 185.784 707.438 185.335C703.813 188.453 702.055 192.574 698.374 195.672C696.996 196.336 695.735 197.218 694.639 198.285C693.816 199.367 693.023 200.462 692.26 201.571C689.716 203.349 690.504 201.867 688.012 201.753C679.326 201.549 671.567 197.968 661.754 201.903C658.36 195.947 645.911 193.307 636.503 198.972C632.064 201.66 630.197 204.006 625.88 203.107C622.769 202.466 619.987 199.203 615.853 201.259C612.086 203.134 607.244 208.813 603.909 211.465C599.164 215.271 594.273 218.775 589.28 222.205C580.499 228.307 573.14 237.94 563.892 243.188C555.022 248.244 549.052 242.807 544.141 239.115C538.429 234.783 531.414 232.563 524.144 229.812C519.65 228.114 515.067 228.211 509.867 227.593C506.178 227.154 503.388 225.759 499.822 225.326C491.433 224.325 486.592 220.984 481.401 216.166C479.743 214.623 477.49 210.806 473.767 211.618C471.576 212.087 468.57 214.946 466.139 215.736C464.075 216.453 461.867 216.653 459.708 216.32C451.405 214.984 443.181 210.329 437.703 205.788C430.566 199.959 426.532 190.934 418.727 185.741C415.882 183.84 412.342 184.81 408.916 183.785C406.319 183.156 403.85 182.084 401.617 180.615C396.792 176.864 392.547 170.657 391.887 164.528C391.12 157.464 387.599 156.797 379.924 161.635C376.965 163.508 374.803 166.21 372.067 167.874C370.227 169.058 367.201 169.365 365.148 170.226C360.197 172.317 355.343 175.897 350.03 176.246C345.697 176.519 345.864 174.744 341.729 179.099C339.614 181.345 338.721 183.727 335.2 184.353C332.764 184.778 329.171 182.964 327.018 182.768C324.144 182.505 320.744 182.352 317.482 182.325C314.22 182.299 311.491 181.554 307.725 182.146C305.189 182.553 302.807 184.247 300.425 184.128C298.886 184.05 297.581 183.011 295.949 182.849C294.839 182.731 293.164 183.112 291.867 183.024C288.201 182.606 285.941 181.973 281.446 184.907C280.946 183.823 277.772 177.835 276.881 177.674C275.076 177.342 273.339 178.864 271.425 179.333" fill="#F4F4F4"/>
</g>
</g>
<g clip-path="url(#clip1_1475_95)">
<path d="M1602.64 426.757C1599.43 426.735 1584.95 426.621 1581.13 421.67C1575.53 422.995 1579.93 435.86 1575.43 439.451C1571.53 442.581 1565.96 439.217 1561.24 434.899C1551.86 426.339 1543.17 417.065 1535.23 407.161C1527.45 397.351 1525.54 391.397 1522.23 379.855C1517.53 380.039 1513.49 381.831 1508.63 381.807C1499.26 381.797 1489.65 380.129 1480.61 381.418C1479.87 388.952 1485.53 398.468 1484.06 404.914C1483.16 409.085 1477.4 409.516 1475.8 413.611C1472.95 420.818 1477.13 424.212 1468.31 424.014C1463.55 421.837 1459.75 422.419 1456.89 425.76C1456.9 430.594 1455.62 434.006 1453.07 436.091C1437.16 420.029 1427.66 394.999 1414.78 375.002C1410.5 368.35 1403.61 354.206 1397.71 358.54C1394.8 360.689 1396.67 366.426 1392.11 365.905C1390.29 365.705 1384.06 360.814 1381.85 359.538C1372.99 354.434 1366.44 346.605 1357.44 343.292C1354.19 342.11 1351.37 341.608 1348.57 340.783L1272.41 269.002L1226.29 254.445L1169.32 251.347C1168.48 249.874 1167.68 248.302 1166.96 246.7C1165.14 242.671 1164.29 238.248 1162.42 234.289C1159.53 228.135 1154.9 227.495 1150.96 221.963C1144.52 213.021 1142.51 206.853 1140.43 196.705C1137.72 195.608 1137.66 200.301 1136.4 202.062C1134.16 205.078 1131.28 208.829 1128.29 210.749C1126.14 212.124 1123.31 211.86 1121.04 213.026C1118.47 214.328 1116.2 216.331 1113.1 216.486C1110.5 216.608 1110.66 217.371 1108.03 213.919C1105.4 210.468 1102.91 205.058 1100.52 201.031C1096.7 194.546 1093.61 192.315 1088.42 188.938C1084.84 199.887 1069.97 193.018 1061.83 193.688C1059.77 193.881 1058.19 193.298 1056.2 193.119C1053.51 192.849 1051.83 194.154 1050.37 196.109C1049.78 196.563 1049.22 197.056 1048.7 197.585C1046.91 195.596 1045.08 193.727 1043.3 192.091C1040.1 189.111 1036.62 188.46 1033.34 185.034C1030.39 181.927 1027.94 176.422 1024.39 175.506C1024.42 178.715 1022.68 185.424 1020.66 186.684C1016.7 189.141 1013.36 180.757 1011.26 175.418C1008.82 169.104 1005.65 166.076 1002.04 160.757C996.642 152.833 994.885 143.208 986.655 140.622C980.24 138.598 982.28 143.384 979.899 148.02C977.221 153.214 972.065 150.379 967.128 149.219C966.881 149.152 966.628 149.108 966.372 149.089C966.145 149.06 965.916 149.044 965.686 149.042C965.262 149.042 964.84 149.096 964.429 149.201C963.709 149.382 963.053 149.761 962.537 150.295C961.359 151.611 951.135 130.226 950.616 131.915L962.535 53.8554L1035.5 -53.6446L1204.5 -53.6447L1632.71 233.418C1628.41 298.087 1624.07 362.747 1619.71 427.397C1614.63 428.451 1607.36 426.845 1602.61 426.833" fill="#00873D"/>
<g style="mix-blend-mode:screen">
<mask id="mask3_1475_95" style="mask-type:luminance" maskUnits="userSpaceOnUse" x="951" y="98" width="245" height="154">
<path d="M1169.32 251.358L951.273 182.54L977.801 98.4887L1195.85 167.307L1169.32 251.358Z" fill="white"/>
</mask>
<g mask="url(#mask3_1475_95)">
<path d="M1169.32 251.347C1168.48 249.874 1167.68 248.302 1166.96 246.7C1165.14 242.671 1164.29 238.248 1162.42 234.289C1159.53 228.135 1154.9 227.495 1150.96 221.963C1144.52 213.021 1142.5 206.853 1140.43 196.705C1137.72 195.608 1137.66 200.301 1136.4 202.062C1134.16 205.078 1131.28 208.829 1128.29 210.749C1126.14 212.124 1123.31 211.86 1121.04 213.026C1118.47 214.328 1116.2 216.331 1113.1 216.486C1110.5 216.608 1110.66 217.371 1108.03 213.919C1105.39 210.468 1102.91 205.058 1100.52 201.031C1096.7 194.546 1093.61 192.315 1088.42 188.938C1084.84 199.887 1069.97 193.018 1061.83 193.688C1059.77 193.881 1058.19 193.298 1056.2 193.119C1053.51 192.849 1051.83 194.154 1050.37 196.109C1049.78 196.559 1049.22 197.053 1048.69 197.585C1046.91 195.596 1045.08 193.727 1043.3 192.091C1040.1 189.111 1036.62 188.46 1033.33 185.031C1030.39 181.927 1027.94 176.422 1024.39 175.506C1024.42 178.715 1022.68 185.424 1020.66 186.684C1016.7 189.141 1013.36 180.757 1011.26 175.418C1008.8 169.111 1005.65 166.076 1002.03 160.754C996.639 152.844 994.885 143.208 986.643 140.619C980.229 138.594 982.269 143.381 979.888 148.016C977.21 153.21 972.054 150.375 967.117 149.216C966.87 149.148 966.617 149.105 966.361 149.086C966.134 149.056 965.905 149.04 965.675 149.038C965.251 149.039 964.829 149.092 964.417 149.197C963.68 149.423 963.037 150.305 962.498 150.856C962.498 150.856 954.488 139.021 954.498 138.988C953.449 136.862 952.56 135.202 951.815 133.856C949.008 128.788 948.225 128.17 948.498 123.856C948.811 119.498 966.046 133.55 968.75 132.024C971.224 130.655 975.147 130.891 977.994 130.328C982.374 129.464 985.755 125.869 990.153 125.481C995.769 124.947 1001.73 135.885 1006.28 142.322C1010.19 147.858 1011.65 149.875 1016.07 149.301C1018.72 148.931 1021.08 147.611 1023.78 147.4C1029.33 147.012 1033.77 156.821 1039.83 160.774C1045.29 164.348 1050.91 160.793 1055.89 161.012C1063.38 161.275 1070.77 164.621 1078.23 163.812C1079.59 163.985 1080.97 163.776 1082.21 163.209C1083.46 162.642 1084.52 161.74 1085.28 160.603C1085.53 158.854 1086.07 157.158 1086.87 155.583C1088.24 154.807 1088.81 154.685 1090.75 157.291C1092.69 159.898 1094.99 166.48 1096.48 169.305C1098.89 173.907 1101.89 180.543 1104.95 184.542C1107.46 187.857 1111.49 193.62 1114.31 195.768C1116.09 195.921 1117.82 196.402 1119.42 197.187C1120.58 198.473 1121.69 199.814 1122.77 201.239C1125.25 203.112 1128.39 203.171 1130.03 201.49C1134.82 196.601 1129.84 184.605 1132.78 178.759C1134.66 175.027 1136.65 172.576 1137.77 167.903C1139.19 161.913 1140.34 155.706 1142.6 150.515C1145.36 152.277 1147.57 157.746 1149.78 160.836C1152.99 165.473 1156.39 169.965 1159.67 174.513C1166.98 184.684 1174.06 193.961 1178.42 206.365C1179.22 208.647 1180.07 211.486 1180.99 214.52L1169.32 251.347Z" fill="#FFF0F9"/>
</g>
</g>
<path d="M953.861 101.526L961.828 122.251C964.041 123.507 971.172 126.586 982.002 128.85C995.416 131.654 994.654 137.207 997.943 138.268C998.372 138.368 998.422 138.408 998.034 138.296C998.003 138.287 997.973 138.277 997.943 138.268C995.369 137.668 979.145 134.928 961.998 150.357C948.561 138.411 957.498 144.357 951.998 134.357C944.973 121.584 950.165 132.801 947.998 128.857C945.83 124.914 946.998 119.857 944.498 115.857C941.411 110.919 943.498 104.188 940.998 101.526L953.861 101.526Z" fill="#FFF1FA"/>
</g>
</g>
<defs>
<clipPath id="clip0_1475_95">
<rect x="-1000" width="3440" height="318" fill="white"/>
</clipPath>
<clipPath id="clip1_1475_95">
<rect width="311.201" height="399.03" fill="white" transform="matrix(-0.953631 -0.300978 -0.300978 0.953631 1260.95 -43.3354)"/>
</clipPath>
</defs>
</svg>
